<svg width="34" height="34" viewBox="0 0 34 34" fill="none" xmlns="http://www.w3.org/2000/svg">
<rect width="34" height="34" rx="5" fill="url(#paint0_linear_1877_11378)"/>
<path fill-rule="evenodd" clip-rule="evenodd" d="M14.0867 8.09961C14.5883 8.09945 15.08 8.23903 15.5067 8.50269C15.9336 8.76643 16.2785 9.14388 16.5028 9.59271L17.3073 11.2017C17.382 11.3513 17.497 11.4772 17.6392 11.5651C17.7814 11.653 17.9452 11.6996 18.1124 11.6996C18.1124 11.6996 18.1124 11.6996 18.1124 11.6996H24.2C24.9161 11.6996 25.6028 11.9841 26.1092 12.4904C26.6155 12.9968 26.9 13.6835 26.9 14.3996V23.3996C26.9 24.1157 26.6155 24.8024 26.1092 25.3088C25.6028 25.8151 24.9161 26.0996 24.2 26.0996H9.79998C9.08389 26.0996 8.39714 25.8151 7.89079 25.3088C7.38444 24.8024 7.09998 24.1157 7.09998 23.3996V10.7996C7.09998 10.0835 7.38444 9.39677 7.89079 8.89042C8.39714 8.38407 9.08389 8.09961 9.79998 8.09961H14.0867C14.0867 8.09961 14.0866 8.09961 14.0867 8.09961ZM14.5606 10.034C14.4183 9.94606 14.2543 9.89953 14.0871 9.89961H9.79998C9.56128 9.89961 9.33236 9.99443 9.16358 10.1632C8.9948 10.332 8.89998 10.5609 8.89998 10.7996V23.3996C8.89998 23.6383 8.9948 23.8672 9.16358 24.036C9.33236 24.2048 9.56128 24.2996 9.79998 24.2996H24.2C24.4387 24.2996 24.6676 24.2048 24.8364 24.036C25.0052 23.8672 25.1 23.6383 25.1 23.3996V14.3996C25.1 14.1609 25.0052 13.932 24.8364 13.7632C24.6676 13.5944 24.4387 13.4996 24.2 13.4996H18.1124C17.6109 13.4996 17.1192 13.3599 16.6926 13.0962C16.2661 12.8325 15.9215 12.4552 15.6973 12.0067C15.6973 12.0066 15.6973 12.0068 15.6973 12.0067L14.8927 10.3975C14.8179 10.2479 14.7029 10.1219 14.5606 10.034Z" fill="white"/>
<path fill-rule="evenodd" clip-rule="evenodd" d="M17 15.2998C17.497 15.2998 17.9 15.7027 17.9 16.1998V17.9998H19.7C20.197 17.9998 20.6 18.4027 20.6 18.8998C20.6 19.3969 20.197 19.7998 19.7 19.7998H17.9V21.5998C17.9 22.0969 17.497 22.4998 17 22.4998C16.5029 22.4998 16.1 22.0969 16.1 21.5998V19.7998H14.3C13.8029 19.7998 13.4 19.3969 13.4 18.8998C13.4 18.4027 13.8029 17.9998 14.3 17.9998H16.1V16.1998C16.1 15.7027 16.5029 15.2998 17 15.2998Z" fill="white"/>
<defs>
<linearGradient id="paint0_linear_1877_11378" x1="17" y1="0" x2="17" y2="34" gradientUnits="userSpaceOnUse">
<stop stop-color="#58BDD3"/>
<stop offset="1" stop-color="#69D5EC"/>
</linearGradient>
</defs>
</svg>
