<svg width="18" height="18" viewBox="0 0 18 18" fill="none" xmlns="http://www.w3.org/2000/svg">
<path d="M14.0625 4.49812H12.0445L10.3605 2.81238C9.99834 2.45278 9.50864 2.25098 8.99824 2.25098C8.48784 2.25098 7.99815 2.45278 7.63594 2.81238L5.95371 4.49461H3.9375C3.49023 4.49553 3.06155 4.67362 2.74528 4.98989C2.42902 5.30615 2.25093 5.73484 2.25 6.18211V14.0624C2.25047 14.5098 2.4284 14.9387 2.74477 15.2551C3.06114 15.5715 3.49009 15.7494 3.9375 15.7499H14.0625C14.5099 15.7494 14.9389 15.5715 15.2552 15.2551C15.5716 14.9387 15.7495 14.5098 15.75 14.0624V6.18562C15.7491 5.73835 15.571 5.30967 15.2547 4.9934C14.9384 4.67714 14.5098 4.49905 14.0625 4.49812ZM8.4375 3.61921C8.58806 3.46926 8.7919 3.38506 9.00439 3.38506C9.21689 3.38506 9.42073 3.46926 9.57129 3.61921L10.4502 4.50691H7.54453L8.4375 3.61921ZM14.625 14.0624C14.625 14.2116 14.5657 14.3546 14.4602 14.4601C14.3548 14.5656 14.2117 14.6249 14.0625 14.6249H3.9375C3.78832 14.6249 3.64524 14.5656 3.53975 14.4601C3.43426 14.3546 3.375 14.2116 3.375 14.0624V6.18562C3.37593 6.03688 3.43554 5.89453 3.54088 5.78952C3.64622 5.68451 3.78876 5.62534 3.9375 5.62488H14.0625C14.2115 5.62534 14.3543 5.68475 14.4597 5.79014C14.5651 5.89553 14.6245 6.03834 14.625 6.18738V14.0624Z" fill="#067CED"/>
<path d="M12.375 7.87305H5.625C5.47582 7.87305 5.33274 7.93231 5.22725 8.0378C5.12176 8.14329 5.0625 8.28636 5.0625 8.43555C5.0625 8.58473 5.12176 8.72781 5.22725 8.83329C5.33274 8.93878 5.47582 8.99805 5.625 8.99805H12.375C12.5242 8.99805 12.6673 8.93878 12.7727 8.83329C12.8782 8.72781 12.9375 8.58473 12.9375 8.43555C12.9375 8.28636 12.8782 8.14329 12.7727 8.0378C12.6673 7.93231 12.5242 7.87305 12.375 7.87305ZM9 11.2498H5.625C5.47582 11.2498 5.33274 11.3091 5.22725 11.4146C5.12176 11.52 5.0625 11.6631 5.0625 11.8123C5.0625 11.9615 5.12176 12.1046 5.22725 12.2101C5.33274 12.3155 5.47582 12.3748 5.625 12.3748H9C9.14918 12.3748 9.29226 12.3155 9.39775 12.2101C9.50324 12.1046 9.5625 11.9615 9.5625 11.8123C9.5625 11.6631 9.50324 11.52 9.39775 11.4146C9.29226 11.3091 9.14918 11.2498 9 11.2498Z" fill="#067CED"/>
</svg>
